<svg width="64" height="64" viewBox="0 0 64 64" fill="none" xmlns="http://www.w3.org/2000/svg">
<g clip-path="url(#clip0_220_1118)">
<path d="M18.6667 29.3335H24V34.6668H18.6667V29.3335ZM56 16.0002V53.3335C56 56.2668 53.6 58.6668 50.6667 58.6668H13.3333C10.3733 58.6668 8 56.2668 8 53.3335L8.02667 16.0002C8.02667 13.0668 10.3733 10.6668 13.3333 10.6668H16V5.3335H21.3333V10.6668H42.6667V5.3335H48V10.6668H50.6667C53.6 10.6668 56 13.0668 56 16.0002ZM13.3333 21.3335H50.6667V16.0002H13.3333V21.3335ZM50.6667 53.3335V26.6668H13.3333V53.3335H50.6667ZM40 34.6668H45.3333V29.3335H40V34.6668ZM29.3333 34.6668H34.6667V29.3335H29.3333V34.6668Z" fill="#323232"/>
</g>
<defs>
<clipPath id="clip0_220_1118">
<rect width="64" height="64" fill="white"/>
</clipPath>
</defs>
</svg>
