<svg width="64" height="64" viewBox="0 0 64 64" fill="none" xmlns="http://www.w3.org/2000/svg">
<g clip-path="url(#clip0_195_902)">
<path d="M50.6667 5.33333H39.52C38.4 2.24 35.4667 0 32 0C28.5333 0 25.6 2.24 24.48 5.33333H13.3333C10.4 5.33333 8 7.73333 8 10.6667V53.3333C8 56.2667 10.4 58.6667 13.3333 58.6667H50.6667C53.6 58.6667 56 56.2667 56 53.3333V10.6667C56 7.73333 53.6 5.33333 50.6667 5.33333ZM32 5.33333C33.4667 5.33333 34.6667 6.53333 34.6667 8C34.6667 9.46667 33.4667 10.6667 32 10.6667C30.5333 10.6667 29.3333 9.46667 29.3333 8C29.3333 6.53333 30.5333 5.33333 32 5.33333ZM50.6667 53.3333H13.3333V10.6667H18.6667V18.6667H45.3333V10.6667H50.6667V53.3333Z" fill="#323232"/>
</g>
<defs>
<clipPath id="clip0_195_902">
<rect width="64" height="64" fill="white"/>
</clipPath>
</defs>
</svg>
