<svg width="64" height="70" viewBox="0 0 64 70" fill="none" xmlns="http://www.w3.org/2000/svg">
<path d="M31.2971 14C35.6182 14 39.1211 10.866 39.1211 7C39.1211 3.13401 35.6182 0 31.2971 0C26.9761 0 23.4731 3.13401 23.4731 7C23.4731 10.866 26.9761 14 31.2971 14Z" fill="#323232"/>
<path d="M46.5134 21.385C44.9878 20.02 42.3667 17.5 37.2812 17.5C36.4597 17.5 31.7262 17.5 27.3447 17.5C16.5868 17.465 7.82396 9.625 7.82396 0H0C0 11.06 8.25428 20.44 19.5599 23.485V70H27.3839V49H35.2078V70H43.0318V28.175L58.4841 42L64 37.065L46.5134 21.385Z" fill="#323232"/>
</svg>
