<svg width="64" height="64" viewBox="0 0 64 64" fill="none" xmlns="http://www.w3.org/2000/svg">
<g clip-path="url(#clip0_195_896)">
<path d="M10.6667 34.6667C13.6 34.6667 16 32.2667 16 29.3333C16 26.4 13.6 24 10.6667 24C7.73333 24 5.33333 26.4 5.33333 29.3333C5.33333 32.2667 7.73333 34.6667 10.6667 34.6667ZM13.68 37.6C12.6933 37.44 11.7067 37.3333 10.6667 37.3333C8.02667 37.3333 5.52 37.8933 3.25333 38.88C1.28 39.7333 0 41.6533 0 43.8133V48H12V43.7067C12 41.4933 12.6133 39.4133 13.68 37.6ZM53.3333 34.6667C56.2667 34.6667 58.6667 32.2667 58.6667 29.3333C58.6667 26.4 56.2667 24 53.3333 24C50.4 24 48 26.4 48 29.3333C48 32.2667 50.4 34.6667 53.3333 34.6667ZM64 43.8133C64 41.6533 62.72 39.7333 60.7467 38.88C58.48 37.8933 55.9733 37.3333 53.3333 37.3333C52.2933 37.3333 51.3067 37.44 50.32 37.6C51.3867 39.4133 52 41.4933 52 43.7067V48H64V43.8133ZM43.3067 36.4C40.1867 35.0133 36.3467 34 32 34C27.6533 34 23.8133 35.04 20.6933 36.4C17.8133 37.68 16 40.56 16 43.7067V48H48V43.7067C48 40.56 46.1867 37.68 43.3067 36.4ZM21.52 42.6667C21.76 42.0533 21.8667 41.6267 23.9467 40.8267C26.5333 39.8133 29.2533 39.3333 32 39.3333C34.7467 39.3333 37.4667 39.8133 40.0533 40.8267C42.1067 41.6267 42.2133 42.0533 42.48 42.6667H21.52ZM32 21.3333C33.4667 21.3333 34.6667 22.5333 34.6667 24C34.6667 25.4667 33.4667 26.6667 32 26.6667C30.5333 26.6667 29.3333 25.4667 29.3333 24C29.3333 22.5333 30.5333 21.3333 32 21.3333ZM32 16C27.5733 16 24 19.5733 24 24C24 28.4267 27.5733 32 32 32C36.4267 32 40 28.4267 40 24C40 19.5733 36.4267 16 32 16Z" fill="#323232"/>
</g>
<defs>
<clipPath id="clip0_195_896">
<rect width="64" height="64" fill="white"/>
</clipPath>
</defs>
</svg>
