<svg width="64" height="64" viewBox="0 0 64 64" fill="none" xmlns="http://www.w3.org/2000/svg">
<g clip-path="url(#clip0_199_2702)">
<path d="M29.3333 31.9998C35.2267 31.9998 40 27.2265 40 21.3332C40 15.4398 35.2267 10.6665 29.3333 10.6665C23.44 10.6665 18.6667 15.4398 18.6667 21.3332C18.6667 27.2265 23.44 31.9998 29.3333 31.9998ZM29.3333 15.9998C32.2667 15.9998 34.6667 18.3998 34.6667 21.3332C34.6667 24.2665 32.2667 26.6665 29.3333 26.6665C26.4 26.6665 24 24.2665 24 21.3332C24 18.3998 26.4 15.9998 29.3333 15.9998ZM13.3333 47.9998C13.8667 46.3198 20.1867 43.5198 26.56 42.8265L32 37.4932C30.96 37.3865 30.1867 37.3332 29.3333 37.3332C22.2133 37.3332 8 40.9065 8 47.9998V53.3332H32L26.6667 47.9998H13.3333ZM54.9333 33.3332L41.2533 47.1198L35.7333 41.5732L32 45.3332L41.2533 54.6665L58.6667 37.0932L54.9333 33.3332Z" fill="#323232"/>
</g>
<defs>
<clipPath id="clip0_199_2702">
<rect width="64" height="64" fill="white"/>
</clipPath>
</defs>
</svg>
