<svg width="64" height="64" viewBox="0 0 64 64" fill="none" xmlns="http://www.w3.org/2000/svg">
<g clip-path="url(#clip0_195_916)">
<path d="M37.3333 21.3332C37.3333 15.4398 32.56 10.6665 26.6667 10.6665C20.7733 10.6665 16 15.4398 16 21.3332C16 27.2265 20.7733 31.9998 26.6667 31.9998C32.56 31.9998 37.3333 27.2265 37.3333 21.3332ZM32 21.3332C32 24.2665 29.6 26.6665 26.6667 26.6665C23.7333 26.6665 21.3333 24.2665 21.3333 21.3332C21.3333 18.3998 23.7333 15.9998 26.6667 15.9998C29.6 15.9998 32 18.3998 32 21.3332Z" fill="#323232"/>
<path d="M5.3335 47.9997V53.333H48.0002V47.9997C48.0002 40.9063 33.7868 37.333 26.6668 37.333C19.5468 37.333 5.3335 40.9063 5.3335 47.9997ZM10.6668 47.9997C11.2002 46.1063 19.4668 42.6663 26.6668 42.6663C33.8402 42.6663 42.0535 46.0797 42.6668 47.9997H10.6668Z" fill="#323232"/>
<path d="M61.3335 26.6665H45.3335V31.9998H61.3335V26.6665Z" fill="#323232"/>
</g>
<defs>
<clipPath id="clip0_195_916">
<rect width="64" height="64" fill="white"/>
</clipPath>
</defs>
</svg>
