<svg width="64" height="64" viewBox="0 0 64 64" fill="none" xmlns="http://www.w3.org/2000/svg">
<g clip-path="url(#clip0_220_1106)">
<path d="M27.9999 11.9998C28.7466 11.9998 29.3333 12.5865 29.3333 13.3332V18.6665H45.3333V34.6665H50.6666C51.4133 34.6665 51.9999 35.2532 51.9999 35.9998C51.9999 36.7465 51.4133 37.3332 50.6666 37.3332H45.3333V53.3332H39.6799C37.8666 48.6665 33.3066 45.3332 27.9999 45.3332C22.6933 45.3332 18.1333 48.6665 16.3199 53.3332H10.6666V47.6798C15.3333 45.8665 18.6666 41.3065 18.6666 35.9998C18.6666 30.6932 15.3599 26.1332 10.6933 24.3198L10.6666 18.6665H26.6666V13.3332C26.6666 12.5865 27.2533 11.9998 27.9999 11.9998ZM27.9999 6.6665C24.3199 6.6665 21.3333 9.65317 21.3333 13.3332H10.6666C7.73325 13.3332 5.35992 15.7332 5.35992 18.6665V28.7998H6.13325C10.1066 28.7998 13.3333 32.0265 13.3333 35.9998C13.3333 39.9732 10.1066 43.1998 6.13325 43.1998H5.33325V53.3332C5.33325 56.2665 7.73325 58.6665 10.6666 58.6665H20.7999V57.8665C20.7999 53.8932 24.0266 50.6665 27.9999 50.6665C31.9733 50.6665 35.1999 53.8932 35.1999 57.8665V58.6665H45.3333C48.2666 58.6665 50.6666 56.2665 50.6666 53.3332V42.6665C54.3466 42.6665 57.3333 39.6798 57.3333 35.9998C57.3333 32.3198 54.3466 29.3332 50.6666 29.3332V18.6665C50.6666 15.7332 48.2666 13.3332 45.3333 13.3332H34.6666C34.6666 9.65317 31.6799 6.6665 27.9999 6.6665Z" fill="#323232"/>
</g>
<defs>
<clipPath id="clip0_220_1106">
<rect width="64" height="64" fill="white"/>
</clipPath>
</defs>
</svg>
