<svg width="64" height="64" viewBox="0 0 64 64" fill="none" xmlns="http://www.w3.org/2000/svg">
<g clip-path="url(#clip0_195_915)">
<path d="M31.9998 32.0002C29.0665 32.0002 26.6665 29.6002 26.6665 26.6668C26.6665 23.7335 29.0665 21.3335 31.9998 21.3335C34.9332 21.3335 37.3332 23.7335 37.3332 26.6668C37.3332 29.6002 34.9332 32.0002 31.9998 32.0002ZM47.9998 27.2002C47.9998 17.5202 40.9332 10.6668 31.9998 10.6668C23.0665 10.6668 15.9998 17.5202 15.9998 27.2002C15.9998 33.4402 21.1998 41.7068 31.9998 51.5735C42.7998 41.7068 47.9998 33.4402 47.9998 27.2002ZM31.9998 5.3335C43.1998 5.3335 53.3332 13.9202 53.3332 27.2002C53.3332 36.0535 46.2132 46.5335 31.9998 58.6668C17.7865 46.5335 10.6665 36.0535 10.6665 27.2002C10.6665 13.9202 20.7998 5.3335 31.9998 5.3335Z" fill="#202020"/>
</g>
<defs>
<clipPath id="clip0_195_915">
<rect width="64" height="64" fill="white"/>
</clipPath>
</defs>
</svg>
