<svg width="100" height="100" viewBox="0 0 100 100" fill="none" xmlns="http://www.w3.org/2000/svg">
<mask id="mask0_1398_1884" style="mask-type:alpha" maskUnits="userSpaceOnUse" x="0" y="0" width="100" height="100">
<rect x="0.5" y="0.5" width="99" height="99" fill="#D9D9D9" stroke="black"/>
</mask>
<g mask="url(#mask0_1398_1884)">
<g clip-path="url(#clip0_1398_1884)">
<path d="M45.5002 -2.33331H30.5002C29.5835 -2.33331 28.8335 -1.58331 28.8335 -0.666646V9.33335C28.8335 10.25 29.5835 11 30.5002 11H36.3335L34.6668 13.5V14.3334H41.3335V13.5L39.6668 11H45.5002C46.4168 11 47.1668 10.25 47.1668 9.33335V-0.666646C47.1668 -1.58331 46.4168 -2.33331 45.5002 -2.33331ZM45.5002 7.66669H30.5002V-0.666646H45.5002V7.66669Z" fill="white" fill-opacity="0.3"/>
</g>
<g clip-path="url(#clip1_1398_1884)">
<path d="M12.5002 42.6667H-2.49984C-3.4165 42.6667 -4.1665 43.4167 -4.1665 44.3334V54.3334C-4.1665 55.25 -3.4165 56 -2.49984 56H3.3335L1.66683 58.5V59.3334H8.3335V58.5L6.66683 56H12.5002C13.4168 56 14.1668 55.25 14.1668 54.3334V44.3334C14.1668 43.4167 13.4168 42.6667 12.5002 42.6667ZM12.5002 52.6667H-2.49984V44.3334H12.5002V52.6667Z" fill="white" fill-opacity="0.3"/>
</g>
<g clip-path="url(#clip2_1398_1884)">
<path d="M12.5002 83.6667H-2.49984C-3.4165 83.6667 -4.1665 84.4167 -4.1665 85.3334V95.3334C-4.1665 96.25 -3.4165 97 -2.49984 97H3.3335L1.66683 99.5V100.333H8.3335V99.5L6.66683 97H12.5002C13.4168 97 14.1668 96.25 14.1668 95.3334V85.3334C14.1668 84.4167 13.4168 83.6667 12.5002 83.6667ZM12.5002 93.6667H-2.49984V85.3334H12.5002V93.6667Z" fill="white" fill-opacity="0.3"/>
</g>
<g clip-path="url(#clip3_1398_1884)">
<path d="M65.5002 47.6667H50.5002C49.5835 47.6667 48.8335 48.4167 48.8335 49.3334V59.3334C48.8335 60.25 49.5835 61 50.5002 61H56.3335L54.6668 63.5V64.3334H61.3335V63.5L59.6668 61H65.5002C66.4168 61 67.1668 60.25 67.1668 59.3334V49.3334C67.1668 48.4167 66.4168 47.6667 65.5002 47.6667ZM65.5002 57.6667H50.5002V49.3334H65.5002V57.6667Z" fill="white" fill-opacity="0.3"/>
</g>
<g clip-path="url(#clip4_1398_1884)">
<path d="M101.5 -2.33331H86.5002C85.5835 -2.33331 84.8335 -1.58331 84.8335 -0.666646V9.33335C84.8335 10.25 85.5835 11 86.5002 11H92.3335L90.6668 13.5V14.3334H97.3335V13.5L95.6668 11H101.5C102.417 11 103.167 10.25 103.167 9.33335V-0.666646C103.167 -1.58331 102.417 -2.33331 101.5 -2.33331ZM101.5 7.66669H86.5002V-0.666646H101.5V7.66669Z" fill="white" fill-opacity="0.3"/>
</g>
<g clip-path="url(#clip5_1398_1884)">
<path d="M105.5 57.6667H90.5002C89.5835 57.6667 88.8335 58.4167 88.8335 59.3334V69.3334C88.8335 70.25 89.5835 71 90.5002 71H96.3335L94.6668 73.5V74.3334H101.333V73.5L99.6668 71H105.5C106.417 71 107.167 70.25 107.167 69.3334V59.3334C107.167 58.4167 106.417 57.6667 105.5 57.6667ZM105.5 67.6667H90.5002V59.3334H105.5V67.6667Z" fill="white" fill-opacity="0.3"/>
</g>
<g clip-path="url(#clip6_1398_1884)">
<path d="M81.9998 83.3333H69.9998C69.2665 83.3333 68.6665 83.9333 68.6665 84.6666V92.6666C68.6665 93.4 69.2665 94 69.9998 94H74.6665L73.3332 96V96.6666H78.6665V96L77.3332 94H81.9998C82.7332 94 83.3332 93.4 83.3332 92.6666V84.6666C83.3332 83.9333 82.7332 83.3333 81.9998 83.3333ZM81.9998 91.3333H69.9998V84.6666H81.9998V91.3333Z" fill="white" fill-opacity="0.3"/>
</g>
<g clip-path="url(#clip7_1398_1884)">
<path d="M43.9998 72.3333H31.9998C31.2665 72.3333 30.6665 72.9333 30.6665 73.6666V81.6666C30.6665 82.4 31.2665 83 31.9998 83H36.6665L35.3332 85V85.6666H40.6665V85L39.3332 83H43.9998C44.7332 83 45.3332 82.4 45.3332 81.6666V73.6666C45.3332 72.9333 44.7332 72.3333 43.9998 72.3333ZM43.9998 80.3333H31.9998V73.6666H43.9998V80.3333Z" fill="white" fill-opacity="0.3"/>
</g>
<g clip-path="url(#clip8_1398_1884)">
<path d="M39.9998 28.3333H27.9998C27.2665 28.3333 26.6665 28.9333 26.6665 29.6666V37.6666C26.6665 38.4 27.2665 39 27.9998 39H32.6665L31.3332 41V41.6666H36.6665V41L35.3332 39H39.9998C40.7332 39 41.3332 38.4 41.3332 37.6666V29.6666C41.3332 28.9333 40.7332 28.3333 39.9998 28.3333ZM39.9998 36.3333H27.9998V29.6666H39.9998V36.3333Z" fill="white" fill-opacity="0.3"/>
</g>
<g clip-path="url(#clip9_1398_1884)">
<path d="M15.9998 11.3333H3.99984C3.2665 11.3333 2.6665 11.9333 2.6665 12.6666V20.6666C2.6665 21.4 3.2665 22 3.99984 22H8.6665L7.33317 24V24.6666H12.6665V24L11.3332 22H15.9998C16.7332 22 17.3332 21.4 17.3332 20.6666V12.6666C17.3332 11.9333 16.7332 11.3333 15.9998 11.3333ZM15.9998 19.3333H3.99984V12.6666H15.9998V19.3333Z" fill="white" fill-opacity="0.3"/>
</g>
<g clip-path="url(#clip10_1398_1884)">
<path d="M73.9998 13.3333H61.9998C61.2665 13.3333 60.6665 13.9333 60.6665 14.6666V22.6666C60.6665 23.4 61.2665 24 61.9998 24H66.6665L65.3332 26V26.6666H70.6665V26L69.3332 24H73.9998C74.7332 24 75.3332 23.4 75.3332 22.6666V14.6666C75.3332 13.9333 74.7332 13.3333 73.9998 13.3333ZM73.9998 21.3333H61.9998V14.6666H73.9998V21.3333Z" fill="white" fill-opacity="0.3"/>
</g>
<g clip-path="url(#clip11_1398_1884)">
<path d="M99.9998 27.3333H87.9998C87.2665 27.3333 86.6665 27.9333 86.6665 28.6666V36.6666C86.6665 37.4 87.2665 38 87.9998 38H92.6665L91.3332 40V40.6666H96.6665V40L95.3332 38H99.9998C100.733 38 101.333 37.4 101.333 36.6666V28.6666C101.333 27.9333 100.733 27.3333 99.9998 27.3333ZM99.9998 35.3333H87.9998V28.6666H99.9998V35.3333Z" fill="white" fill-opacity="0.3"/>
</g>
</g>
<defs>
<clipPath id="clip0_1398_1884">
<rect width="20" height="20" fill="white" transform="translate(28 -4)"/>
</clipPath>
<clipPath id="clip1_1398_1884">
<rect width="20" height="20" fill="white" transform="translate(-5 41)"/>
</clipPath>
<clipPath id="clip2_1398_1884">
<rect width="20" height="20" fill="white" transform="translate(-5 82)"/>
</clipPath>
<clipPath id="clip3_1398_1884">
<rect width="20" height="20" fill="white" transform="translate(48 46)"/>
</clipPath>
<clipPath id="clip4_1398_1884">
<rect width="20" height="20" fill="white" transform="translate(84 -4)"/>
</clipPath>
<clipPath id="clip5_1398_1884">
<rect width="20" height="20" fill="white" transform="translate(88 56)"/>
</clipPath>
<clipPath id="clip6_1398_1884">
<rect width="16" height="16" fill="white" transform="translate(68 82)"/>
</clipPath>
<clipPath id="clip7_1398_1884">
<rect width="16" height="16" fill="white" transform="translate(30 71)"/>
</clipPath>
<clipPath id="clip8_1398_1884">
<rect width="16" height="16" fill="white" transform="translate(26 27)"/>
</clipPath>
<clipPath id="clip9_1398_1884">
<rect width="16" height="16" fill="white" transform="translate(2 10)"/>
</clipPath>
<clipPath id="clip10_1398_1884">
<rect width="16" height="16" fill="white" transform="translate(60 12)"/>
</clipPath>
<clipPath id="clip11_1398_1884">
<rect width="16" height="16" fill="white" transform="translate(86 26)"/>
</clipPath>
</defs>
</svg>
